<svg xmlns="http://www.w3.org/2000/svg" width="46.31" height="46.26" viewBox="0 0 46.31 46.26">
  <defs>
    <style>
      .cls-1 {
        fill: #85603c;
      }
    </style>
  </defs>
  <title>communicatie-info</title>
  <g id="Layer_2" data-name="Layer 2">
    <g id="Laag_1" data-name="Laag 1">
      <g>
        <path class="cls-1" d="M45.15,38c-.32.74-.8,1.42-1.15,2.16a1.45,1.45,0,0,0-.13.91c.26,1.1.58,2.18.88,3.27,0,.14.06.29.11.54-.91-.25-1.77-.41-2.58-.72a3.29,3.29,0,0,0-3.09.34A13.79,13.79,0,0,1,21.3,40.68a22.75,22.75,0,0,1-1.51-2.57,10.69,10.69,0,0,1-.49-1.19C29.2,35,35.06,29.18,37,19.29a11.71,11.71,0,0,1,3.79,2A13.89,13.89,0,0,1,45.15,38Z"/>
        <path class="cls-1" d="M33.27,12.4A16.89,16.89,0,0,0,18.75.09,16.5,16.5,0,0,0,5.55,4.45,16.68,16.68,0,0,0,2.12,25a4,4,0,0,1,.37,3.62c-.44,1.2-.7,2.46-1.07,3.83C3.24,32,4.91,31.52,6.57,31a1.44,1.44,0,0,1,1.29.19,16.35,16.35,0,0,0,7.68,2.58,16.18,16.18,0,0,0,13.39-4.92A16.31,16.31,0,0,0,33.27,12.4ZM19,25H15.24V14.7H19ZM17.05,12.67a2.42,2.42,0,1,1,2.42-2.42A2.42,2.42,0,0,1,17.05,12.67Z"/>
      </g>
    </g>
  </g>
</svg>
