<svg xmlns="http://www.w3.org/2000/svg" width="47.05" height="44.64" viewBox="0 0 47.05 44.64">
  <defs>
    <style>
      .cls-1 {
        fill: #c20e1a;
      }
    </style>
  </defs>
  <title>gezondheid-zorg</title>
  <g id="Layer_2" data-name="Layer 2">
    <g id="Laag_1" data-name="Laag 1">
      <g>
        <path class="cls-1" d="M23.52,3.17c-14-12-45.09,11.7,0,41.47C68.62,14.87,37.51-8.79,23.52,3.17Zm12.31,23h-8V33.9H18.66v-8H10.9V16.74h7.93V8.84h9.41v8h7.59Z"/>
        <g>
          <path class="cls-1" d="M19,21.44l1.8-4.4a.38.38,0,0,1,.4-.23.37.37,0,0,1,.32.34L22,22.5l1-3.2a.35.35,0,0,1,.37-.27.39.39,0,0,1,.36.3l.47,2L25,17.89a.37.37,0,0,1,.39-.28.36.36,0,0,1,.35.32l.66,4.49.07-.21a.38.38,0,0,1,.36-.25h7.94V17.84H27.22v-8H19.85v7.9H11.93v3.67Z"/>
          <path class="cls-1" d="M27.14,22.71l-.49,1.41a.37.37,0,0,1-.4.25.36.36,0,0,1-.33-.32l-.61-4.12-.78,3.14a.39.39,0,0,1-.37.28h0a.38.38,0,0,1-.37-.29l-.51-2.19-1.12,3.68a.38.38,0,0,1-.36.27h0a.37.37,0,0,1-.33-.34l-.55-5.74L19.56,22a.37.37,0,0,1-.35.23H11.93v2.69h7.75v8h7.14V25.12h8V22.71Z"/>
        </g>
      </g>
    </g>
  </g>
</svg>
