<svg xmlns="http://www.w3.org/2000/svg" width="46.07" height="50.89" viewBox="0 0 46.07 50.89">
  <defs>
    <style>
      .cls-1 {
        fill: #009de0;
      }
    </style>
  </defs>
  <title>infrastructuur</title>
  <g id="Layer_2" data-name="Layer 2">
    <g id="Laag_1" data-name="Laag 1">
      <g>
        <path class="cls-1" d="M36.14,50.76l9.93,0V23.13l-10.17.05m3,7.2a.76.76,0,1,1,1.52,0v1.81a.76.76,0,1,1-1.52,0Zm1.51,12.43a.77.77,0,0,1-1.53,0V41a.77.77,0,0,1,1.53,0Zm0-5.16a.76.76,0,0,1-1.52,0V35.84a.76.76,0,0,1,1.52,0Zm2.44-7.24a.77.77,0,0,1,.77-.76.76.76,0,0,1,.76.76v1.81a.76.76,0,0,1-.76.76.77.77,0,0,1-.77-.76ZM44.4,42.84a.76.76,0,0,1-1.52,0V41a.76.76,0,0,1,1.52,0Zm0-5.17a.77.77,0,0,1-.77.77.76.76,0,0,1-.76-.77v-1.8a.76.76,0,0,1,.76-.76.77.77,0,0,1,.77.76Z"/>
        <path class="cls-1" d="M0,29.59v21.3H10V29.59ZM2.84,43.05a.76.76,0,1,1-1.52,0V32.86a.76.76,0,1,1,1.52,0Z"/>
        <path class="cls-1" d="M11.23,0V50.89h5.05V40.79h5V50.86l13.32,0V.08Zm3.52,9.56H28.52a.76.76,0,1,1,0,1.52H14.75a.76.76,0,0,1,0-1.52ZM14,17.05a.77.77,0,0,1,.77-.76H28.64a.76.76,0,1,1,0,1.52H14.79A.77.77,0,0,1,14,17.05Zm.77,6h14a.76.76,0,1,1,0,1.52h-14a.76.76,0,0,1,0-1.52Zm14.05,8.09h-14a.76.76,0,0,1,0-1.52h14a.76.76,0,1,1,0,1.52Z"/>
      </g>
    </g>
  </g>
</svg>
