<svg xmlns="http://www.w3.org/2000/svg" width="43.82" height="43.08" viewBox="0 0 43.82 43.08">
  <defs>
    <style>
      .cls-1 {
        fill: #d9c034;
      }
    </style>
  </defs>
  <title>interessante-links</title>
  <g id="Layer_2" data-name="Layer 2">
    <g id="Laag_1" data-name="Laag 1">
      <g>
        <path class="cls-1" d="M34.57,34.38a4.52,4.52,0,0,1-4.52,4.53H8.89a4.53,4.53,0,0,1-4.53-4.53V13.23A4.53,4.53,0,0,1,8.89,8.7H22.33l4.74-4.62H7.69A7.69,7.69,0,0,0,0,11.77V35.4a7.68,7.68,0,0,0,7.69,7.68H31.32A7.68,7.68,0,0,0,39,35.4V17l-4.43,4.32Z"/>
        <polygon class="cls-1" points="42.93 7.02 43.82 0 36.78 0.71 29.74 1.43 32.54 4.3 25.55 11.11 32.24 17.98 39.23 11.17 42.03 14.04 42.93 7.02"/>
      </g>
    </g>
  </g>
</svg>
