<svg xmlns="http://www.w3.org/2000/svg" width="49.63" height="45.19" viewBox="0 0 49.63 45.19">
  <defs>
    <style>
      .cls-1 {
        fill: #d57fab;
      }
    </style>
  </defs>
  <title>respect-sociale-inclusie</title>
  <g id="Layer_2" data-name="Layer 2">
    <g id="Laag_1" data-name="Laag 1">
      <g>
        <path class="cls-1" d="M21.45,25.47l-.71-.71a1.9,1.9,0,0,0-2.58,0l-1.58,1.57a2.25,2.25,0,0,1-.24.3L12.58,30.4,11.5,31.47l-1.21,1.21a3.36,3.36,0,0,1-.29.24l-.42.42a1.89,1.89,0,0,0,0,2.58l.71.71a1.87,1.87,0,0,0,2.58,0l8.58-8.58A1.9,1.9,0,0,0,21.45,25.47Z"/>
        <path class="cls-1" d="M24,32.17h0l-1-1a1.61,1.61,0,0,0-2.26,0l-7,7a1.59,1.59,0,0,0,0,2.25l1,1a1.64,1.64,0,0,0,2.26,0l7-7A1.65,1.65,0,0,0,24,32.17Z"/>
        <path class="cls-1" d="M27.08,38.29,25.6,36.81c-1.41-.79-1.55,0-1.81,0l-4.72,4.72a1.3,1.3,0,0,0,0,1.81l1.48,1.48a1.29,1.29,0,0,0,1.82,0l4.71-4.72A1.28,1.28,0,0,0,27.08,38.29Z"/>
        <path class="cls-1" d="M15.27,23.48l-1.21-1.21a1.48,1.48,0,0,0-2.08,0l-6,6.05a1.46,1.46,0,0,0,0,2.08l1.21,1.21a1.46,1.46,0,0,0,1.82.2l6.51-6.5A1.49,1.49,0,0,0,15.27,23.48Z"/>
        <path class="cls-1" d="M25.82,34.08a2.79,2.79,0,0,1-.42,1,2.83,2.83,0,0,1,1.27.71l1.48,1.48a2.79,2.79,0,0,1,0,4l-.89.89.32.32a1.64,1.64,0,0,0,2.26,0l1-1a1.67,1.67,0,0,0,.35-1.72Z"/>
        <path class="cls-1" d="M29.18,4.38a49.86,49.86,0,0,0-4,3.52h0c-3,2.77-6.51,6.24-7.09,6.91a1.14,1.14,0,0,0,.12.55.79.79,0,0,0,.52.39c1.24.37,3.65.59,4.43.14a9.74,9.74,0,0,0,1.59-1.59,9.16,9.16,0,0,1,3-2.64c1.68-.57,3.68-.13,6.33.56a8.62,8.62,0,0,0,5.19,0A13.35,13.35,0,0,0,41,10.56l1.13,1a15,15,0,0,1-2,1.89c-.87.58-3.58,1-6.41.24l-.28-.07L43.75,24.1c1.35-1.52,3.69-4.38,4.24-6.4.66-2.43,1.37-5,1.64-6L37.59,0C35.92.84,30.4,3.62,29.18,4.38Z"/>
        <path class="cls-1" d="M30.73,13a5.26,5.26,0,0,0-2.48.07,9.11,9.11,0,0,0-2.39,2.21,9.64,9.64,0,0,1-2,1.9c-1.42.82-4.45.34-5.61,0a2.33,2.33,0,0,1-1.44-1.16,2.45,2.45,0,0,1-.19-1.78c.17-.51,4.12-4.33,7.41-7.37-1.54-1.35-4.35-3.66-6.36-4.2l-6-1.65L0,13.1c.84,1.67,3.62,7.19,4.38,8.41a38,38,0,0,0,2.89,3.34l3.65-3.65a3,3,0,0,1,4.21,0l1.21,1.22a2.82,2.82,0,0,1,.74,1.28h0a3.34,3.34,0,0,1,4.71,0l.71.71a3.45,3.45,0,0,1,0,4.72l-.1.1a3.17,3.17,0,0,1,1.58.84l1,1h0l4.57,4.69.06,0L31.94,38a3,3,0,0,1,.52.71l.41.42a1.88,1.88,0,0,0,2.58,0l.71-.71a1.83,1.83,0,0,0,0-2.58L26,25.52l1.07-1.06L37.64,35.05a1.64,1.64,0,0,0,2.26,0l1-1a1.64,1.64,0,0,0,0-2.25L31.13,22l1.06-1.07,6.63,6.62,0,0L41.4,30c1.46.86,1.64,0,1.9,0l1.11-1.13a1.39,1.39,0,0,0,0-1.95Z"/>
      </g>
    </g>
  </g>
</svg>
